<?xml version="1.0" standalone="no"?>
<!DOCTYPE svg PUBLIC "-//W3C//DTD SVG 20010904//EN"
 "http://www.w3.org/TR/2001/REC-SVG-20010904/DTD/svg10.dtd">
<svg version="1.0" xmlns="http://www.w3.org/2000/svg"
 width="320.000000pt" height="320.000000pt" viewBox="0 0 320.000000 320.000000"
 preserveAspectRatio="xMidYMid meet">
<metadata>
Created by potrace 1.16, written by Peter Selinger 2001-2019
</metadata>
<g transform="translate(0.000000,320.000000) scale(0.100000,-0.100000)"
fill="#000000" stroke="none">
<path d="M1892 2669 c-35 -28 -174 -69 -272 -80 -96 -11 -177 -44 -172 -70 4
-28 -52 -40 -145 -33 -76 6 -83 5 -83 -11 0 -11 -9 -29 -21 -41 l-20 -22 20
-40 21 -40 50 24 c58 28 73 29 155 9 33 -8 75 -15 93 -15 17 0 32 -3 32 -6 0
-3 -14 -44 -30 -91 -38 -108 -60 -231 -60 -339 0 -45 -3 -85 -7 -87 -17 -11
-136 55 -187 103 -69 66 -100 133 -94 207 3 37 11 60 28 78 12 13 20 31 17 39
-15 39 -186 50 -328 21 -281 -57 -511 -182 -689 -372 -126 -134 -221 -275
-127 -186 141 133 440 243 658 243 l69 0 -46 -57 c-87 -106 -165 -316 -181
-483 l-5 -55 36 58 c82 135 170 229 262 283 34 20 164 68 164 61 0 -1 -9 -31
-20 -66 -31 -97 -36 -193 -16 -303 10 -52 27 -117 40 -144 l23 -49 5 120 c7
142 29 211 87 274 61 66 79 59 158 -68 1 -2 25 17 53 42 27 25 63 50 79 55
l30 11 16 -72 c9 -39 20 -77 24 -85 6 -10 32 -14 97 -16 75 -1 96 -5 133 -26
24 -14 49 -33 55 -43 16 -27 -24 -57 -221 -162 -355 -189 -512 -327 -513 -448
0 -76 97 -180 202 -217 77 -27 291 -38 416 -21 96 12 291 74 446 141 135 57
320 150 314 156 -3 2 -21 -2 -40 -11 -159 -66 -452 -150 -628 -181 -130 -22
-329 -15 -422 15 -110 35 -155 108 -112 180 25 42 94 83 362 213 391 190 474
260 519 438 l9 35 17 -55 c10 -33 18 -98 19 -162 2 -60 6 -108 10 -108 10 0
44 96 58 165 19 91 15 228 -9 305 -11 35 -18 66 -15 69 12 13 117 -35 179 -81
76 -58 145 -138 206 -238 37 -62 39 -63 39 -33 0 54 -59 284 -90 350 -32 69
-79 143 -118 186 l-26 27 71 0 c210 0 502 -106 652 -237 28 -25 51 -41 51 -36
0 13 -80 115 -152 196 -170 189 -355 298 -633 373 -130 35 -306 32 -364 -5
-12 -8 -10 -16 12 -48 87 -126 -36 -328 -238 -388 l-44 -14 -30 35 c-48 54
-75 158 -68 258 7 91 23 146 42 146 8 0 27 -12 44 -26 l31 -26 0 39 c0 47 14
63 55 63 28 1 29 2 11 15 -21 16 -13 35 15 35 11 0 36 7 57 16 l37 17 -45 11
-45 12 49 13 c107 27 209 99 248 174 l20 40 -29 -21 c-40 -28 -113 -56 -204
-77 l-76 -18 -31 23 -30 23 46 31 c44 29 78 75 70 96 -2 4 -14 0 -26 -11z"/>
</g>
</svg>
